PathFileType	4	(X/Y/Z)	C:/Users/opensim2020/Desktop/walking_exp_matlab/subject06_walking15_straight_02.trc	
DataRate	CameraRate	NumFrames	NumMarkers	Units	OrigDataRate	OrigDataStartFrame	OrigNumFrames	
100.00	100.00	7	47	mm	100.00	1519	218	
Frame#	Time	LFHD			RFHD			LBHD			RBHD			C7			T10			CLAV			STRN			RBAK			LSHO			LUPA			LELB			LFRM			LWRA			LWRB			LFIN			RSHO			RUPA			RELB			RFRM			RWRA			RWRB			RFIN			LASI			RASI			LPSI			RPSI			LTHI			LKNE			LTIB			LANK			LHEE			LTOE			RTHI			RKNE			RTIB			RANK			RHEE			RTOE			*39			*40			*41			*42			*43			*44			*45			*46			
		X1	Y1	Z1	X2	Y2	Z2	X3	Y3	Z3	X4	Y4	Z4	X5	Y5	Z5	X6	Y6	Z6	X7	Y7	Z7	X8	Y8	Z8	X9	Y9	Z9	X10	Y10	Z10	X11	Y11	Z11	X12	Y12	Z12	X13	Y13	Z13	X14	Y14	Z14	X15	Y15	Z15	X16	Y16	Z16	X17	Y17	Z17	X18	Y18	Z18	X19	Y19	Z19	X20	Y20	Z20	X21	Y21	Z21	X22	Y22	Z22	X23	Y23	Z23	X24	Y24	Z24	X25	Y25	Z25	X26	Y26	Z26	X27	Y27	Z27	X28	Y28	Z28	X29	Y29	Z29	X30	Y30	Z30	X31	Y31	Z31	X32	Y32	Z32	X33	Y33	Z33	X34	Y34	Z34	X35	Y35	Z35	X36	Y36	Z36	X37	Y37	Z37	X38	Y38	Z38	X39	Y39	Z39	X40	Y40	Z40	X41	Y41	Z41	X42	Y42	Z42	X43	Y43	Z43	X44	Y44	Z44	X45	Y45	Z45	X46	Y46	Z46	X47	Y47	Z47	

28	0.270	-904.52942	1052.24084	1664.96143	-1036.26294	1044.26331	1659.85107	-914.83173	1185.00708	1607.75977	-1044.25684	1174.65955	1607.73682	-971.00635	1177.54431	1451.11377	-978.55859	1202.95410	1122.31702	-972.66101	1064.16089	1377.86047	-966.15387	1019.80762	1203.54382	-1048.22046	1245.39099	1277.64392	-809.98260	1119.92859	1405.63501	-743.50269	1107.25708	1201.15674	-735.42584	1099.46936	1087.93713	-715.72546	1040.30054	949.47510	-754.49976	945.46210	861.29584	-724.19879	1004.94550	835.84802	-720.48914	940.06775	772.64880	-1133.58899	1113.45752	1407.92468	-1221.38147	1159.64380	1211.43909	-1233.31567	1155.90637	1089.20557	-1249.30945	1140.15479	969.84094	-1215.88770	1077.76245	831.85931	-1256.48853	1132.78052	832.50342	-1257.23450	1094.95227	756.59131	-870.45007	1033.70068	957.41040	-1089.39941	1024.36572	973.21912	-901.90942	1188.91760	987.34375	-1068.98682	1177.14612	999.40973	-816.74738	1105.15613	635.62653	-833.29181	1094.77332	473.05167	-859.53650	1288.32153	323.17047	-907.00977	1417.98999	217.05426	-959.52142	1442.78711	236.98659	-894.17474	1372.84814	77.45327	-1150.77185	1047.12610	642.86829	-1121.36169	1024.86792	520.56281	-1126.12463	1053.91199	253.62001	-1081.51990	1064.58252	67.29863	-1038.20154	1104.99463	42.34596	-1073.24011	910.43030	33.63827	-968.31036	1150.12683	1703.97791																					 
29	0.280	-905.73743	1042.45728	1665.62097	-1037.38672	1034.46863	1660.70728	-916.21582	1175.35779	1608.51294	-1045.61206	1164.79480	1608.60962	-972.69159	1167.86560	1451.98120	-980.61530	1193.71411	1123.30603	-974.03973	1054.51892	1378.62769	-967.64099	1010.49005	1204.29065	-1050.74792	1235.60095	1278.86169	-811.43860	1110.92737	1406.09705	-745.33649	1100.11169	1201.26892	-737.15881	1094.18713	1088.07629	-716.98981	1038.60559	947.78088	-754.25287	946.26764	856.35358	-725.08490	1006.96820	832.92194	-720.01532	944.38495	767.62915	-1135.13928	1102.98218	1408.90845	-1223.54077	1147.90747	1212.31091	-1235.75134	1143.05115	1090.11316	-1251.40308	1125.23450	971.05731	-1217.06165	1060.57458	834.51642	-1258.14941	1115.29468	833.92517	-1258.79688	1075.95593	758.87659	-871.91254	1024.89246	958.32678	-1090.77124	1015.19592	973.96069	-903.45020	1179.87842	988.12207	-1070.57996	1167.99756	1000.32568	-817.65118	1091.17358	636.73553	-833.71112	1076.80579	474.82779	-861.46576	1269.06702	325.83801	-909.19012	1398.11304	218.88623	-961.79877	1423.78772	238.51469	-896.77783	1350.64709	80.21702	-1151.72693	1041.95569	642.46460	-1122.66113	1020.42792	520.01422	-1126.52881	1052.05396	253.42650	-1081.56787	1064.50122	67.24565	-1038.27881	1105.06409	42.37437	-1073.27356	910.46606	33.68775	-969.52716	1140.38684	1704.75598																					 
30	0.290	-906.80145	1032.64868	1666.23120	-1038.40100	1024.55078	1661.49011	-917.53088	1165.69543	1609.22168	-1046.90186	1154.95422	1609.46216	-974.33514	1158.30664	1452.82703	-982.60107	1184.52319	1124.28015	-975.34460	1044.97766	1379.35510	-969.03003	1001.60010	1204.98523	-1053.10901	1225.90308	1280.03357	-812.86102	1102.03369	1406.58264	-747.06439	1092.96729	1201.51587	-739.44965	1088.24341	1088.13843	-717.94427	1037.29480	946.45685	-754.10529	947.49628	851.79895	-725.61139	1009.52423	830.55798	-719.50220	949.05853	763.22467	-1136.57434	1092.63843	1409.89624	-1225.58875	1136.12561	1213.16040	-1238.10498	1130.14014	1091.04272	-1253.41028	1110.23889	972.35846	-1218.15820	1043.39124	837.18439	-1259.75049	1097.62793	835.44781	-1259.62952	1056.63855	761.14874	-873.63373	1015.93652	959.14355	-1092.19727	1006.07617	974.52893	-905.04126	1170.82556	988.92102	-1072.18958	1158.86133	1001.13080	-818.62891	1077.10706	638.29578	-834.37000	1058.65222	476.72754	-863.14496	1249.30652	327.44067	-911.25220	1377.62878	219.33490	-963.84009	1403.96960	238.66733	-899.38794	1327.50159	81.75848	-1153.72412	1035.92822	642.03204	-1123.86243	1016.23889	519.44373	-1126.80750	1050.69031	253.23540	-1081.45972	1064.38965	67.26966	-1038.17432	1105.08813	42.49842	-1073.28845	910.40417	33.65901	-970.65857	1130.63855	1705.54773																					 
31	0.300	-907.69171	1022.97052	1666.81995	-1039.31506	1014.69879	1662.21057	-918.76807	1156.09460	1609.98059	-1047.88623	1144.94336	1610.29761	-975.87775	1148.74756	1453.64441	-984.49414	1175.41553	1125.15454	-976.51276	1035.65125	1379.93079	-970.40302	992.50079	1205.55225	-1055.28333	1216.30017	1281.18018	-814.19867	1093.22510	1407.16516	-748.70752	1086.07422	1201.87402	-741.15088	1083.24353	1088.46191	-719.50244	1036.02222	945.34479	-753.94006	949.04669	847.71777	-725.81451	1012.65582	828.76373	-719.21143	954.07947	759.33612	-1137.87793	1082.38281	1410.86438	-1227.46082	1124.35962	1213.91846	-1240.34436	1117.15186	1091.99097	-1255.33398	1095.12866	973.65759	-1219.14160	1026.17603	839.89819	-1261.27576	1079.88379	837.14099	-1261.05774	1037.65308	763.79041	-874.73096	1005.98187	960.32715	-1093.73499	997.03223	974.97876	-906.70404	1161.80432	989.76373	-1073.85950	1149.76306	1001.84039	-819.55609	1062.64526	639.71448	-835.11096	1040.53589	478.75925	-864.56573	1229.14404	327.88312	-913.04962	1356.47607	218.42065	-965.48962	1383.35657	237.32874	-901.86200	1303.64331	82.12811	-1154.65039	1030.30212	641.72028	-1124.95264	1012.22949	518.77063	-1127.09766	1049.90698	253.13664	-1081.33179	1064.29724	67.36186	-1037.92236	1105.03577	42.56668	-1073.25659	910.32056	33.54656	-971.76147	1120.84302	1706.28711																					 
32	0.310	-908.60632	1013.26624	1667.34912	-1040.19116	1004.84705	1662.85681	-919.92102	1146.48572	1610.68079	-1049.25659	1135.30542	1611.13550	-977.37646	1139.26270	1454.44104	-986.33325	1166.34216	1126.01074	-977.63422	1026.16650	1380.61035	-971.77045	983.40692	1206.10059	-1057.35535	1206.77100	1282.29358	-815.52753	1084.45154	1407.74023	-750.29504	1079.43872	1202.29480	-742.97754	1077.94482	1088.90405	-720.61664	1035.07898	944.59045	-753.88190	950.75116	844.07300	-726.87024	1015.10681	827.25641	-719.04102	959.20715	755.95013	-1139.13611	1072.27637	1411.82056	-1229.37549	1112.58997	1214.80054	-1242.47620	1104.13330	1092.96436	-1257.17798	1079.98267	975.08087	-1220.14746	1008.91284	842.79083	-1262.74463	1062.09424	838.89136	-1262.11121	1018.53180	766.45361	-876.47223	996.77490	961.37701	-1095.46240	988.08441	975.41534	-908.36169	1152.79150	990.60052	-1075.51953	1140.73254	1002.45184	-820.48077	1048.11865	641.27844	-836.00726	1022.48926	480.86591	-865.70868	1208.81689	327.41177	-914.69232	1334.68689	216.28394	-966.99768	1362.32019	234.73260	-904.07727	1278.09436	81.77543	-1155.31628	1025.84839	641.21973	-1126.16211	1008.46478	518.14221	-1127.17517	1049.39294	253.07288	-1081.18042	1064.28345	67.42710	-1037.70178	1105.04810	42.67183	-1073.27844	910.27667	33.45695	-972.76508	1111.02881	1707.01953																					 
33	0.320	-909.39331	1003.65558	1667.83032	-1040.98267	995.02527	1663.44031	-921.02472	1136.96997	1611.37512	-1050.33752	1125.52417	1611.94238	-978.84619	1129.87622	1455.21228	-988.16693	1157.27405	1126.77722	-978.74011	1016.97247	1381.23022	-973.04572	974.43976	1206.66833	-1059.34241	1197.30859	1283.42871	-816.82361	1075.72888	1408.35291	-751.82001	1072.95764	1202.75403	-744.78210	1072.89001	1089.43066	-721.79999	1034.21765	944.15222	-753.86334	952.57452	840.92267	-727.72034	1017.72571	826.19629	-719.20703	964.45618	753.09094	-1140.28101	1062.20898	1412.73120	-1231.37488	1100.72424	1215.76892	-1244.47998	1091.59033	1094.00793	-1258.98096	1064.94128	976.58923	-1221.12634	991.67010	845.75098	-1264.17236	1044.32520	840.74969	-1263.14539	999.39380	769.25714	-878.26355	987.50977	962.45502	-1097.39441	979.01331	975.63910	-909.96246	1143.73425	991.43878	-1077.12744	1131.77954	1002.90607	-821.51263	1033.56470	642.87891	-837.07434	1004.71899	483.08893	-866.71252	1188.16858	326.07684	-916.03320	1312.17688	212.97459	-968.17950	1340.76917	230.83029	-905.94269	1251.50208	80.72756	-1155.93237	1019.24152	641.24506	-1127.41772	1004.71967	517.64825	-1127.41809	1048.59119	252.99252	-1081.08704	1064.23267	67.43795	-1037.57593	1105.07520	42.75658	-1073.34497	910.24988	33.41408	-973.69373	1101.23486	1707.68591																					 
34	0.330	-910.08167	993.95551	1668.23389	-1041.64478	985.16479	1663.96277	-922.04089	1127.39709	1611.99133	-1051.30359	1115.70081	1612.67834	-980.21954	1120.52930	1455.87732	-989.96857	1148.26697	1127.48108	-979.76929	1007.69086	1381.72583	-974.37335	965.45532	1207.14856	-1061.19702	1187.87231	1284.50220	-817.99695	1067.03137	1408.90576	-753.22101	1066.72070	1203.28491	-746.35651	1068.03870	1090.05908	-722.23132	1033.91528	944.00580	-753.95587	954.34985	838.21936	-728.47241	1020.17352	825.51782	-719.23810	969.35156	750.75024	-1141.31335	1052.23828	1413.60376	-1233.06470	1088.85266	1216.61328	-1246.33179	1078.36316	1094.98865	-1260.72510	1050.02893	978.14417	-1222.08508	974.41418	848.83539	-1265.40930	1026.24939	842.58838	-1263.85315	980.06268	772.10266	-880.02466	978.27466	963.57642	-1099.27844	970.26532	975.90521	-911.44482	1134.56775	992.24933	-1078.60352	1122.86926	1003.24689	-822.21613	1019.48590	644.55017	-838.30023	987.25732	485.33243	-867.37384	1167.53687	324.32932	-916.95288	1289.05811	208.61696	-969.10730	1318.73303	225.60854	-907.59326	1223.31311	79.17552	-1156.86560	1013.77448	641.15222	-1128.72974	1000.96832	517.14557	-1127.77051	1047.41626	253.00922	-1081.08264	1064.21082	67.44908	-1037.52637	1105.09180	42.82516	-1073.43359	910.24841	33.32922	-974.55322	1091.46033	1708.33740																					 
